<svg xmlns="http://www.w3.org/2000/svg" viewBox="0 0 67.8 9.099">
  <defs>
    <style>
      .cls-1 {
        fill: #49d492;
      }

      .cls-2 {
        fill: #2c3e50;
      }
    </style>
  </defs>
  <g id="Group_28" data-name="Group 28" transform="translate(-883.2 -1085.543)">
    <rect id="Rectangle_34" data-name="Rectangle 34" class="cls-1" width="2.432" height="4.054" transform="translate(883.2 1090.407)"/>
    <rect id="Rectangle_35" data-name="Rectangle 35" class="cls-1" width="2.432" height="7.297" transform="translate(887.254 1087.164)"/>
    <rect id="Rectangle_38" data-name="Rectangle 38" class="cls-1" width="2.432" height="5.675" transform="translate(891.308 1088.786)"/>
    <rect id="Rectangle_40" data-name="Rectangle 40" class="cls-1" width="2.432" height="8.919" transform="translate(895.362 1085.543)"/>
    <path id="Path_24" data-name="Path 24" class="cls-2" d="M188,117.5h3.991v1.36h-2.612v1.324h2.612v1.333h-2.612v1.928h2.612v1.369H188Z" transform="translate(712.137 969.682)"/>
    <path id="Path_25" data-name="Path 25" class="cls-2" d="M242.309,116.034h.486c0-.712.018-1.126.036-1.261a1.052,1.052,0,0,1,.378-.712,1.421,1.421,0,0,1,.91-.261,2.7,2.7,0,0,1,.955.2v1.036a1.933,1.933,0,0,0-.486-.081.528.528,0,0,0-.351.1.431.431,0,0,0-.081.306l-.009.676H245v1.144h-.856v4.261h-1.36v-4.261H242.3v-1.144Z" transform="translate(662.729 973.049)"/>
    <path id="Path_26" data-name="Path 26" class="cls-2" d="M278.5,116.034h.486c0-.712.018-1.126.036-1.261a1.051,1.051,0,0,1,.378-.712,1.421,1.421,0,0,1,.91-.261,2.7,2.7,0,0,1,.955.2v1.036a1.934,1.934,0,0,0-.486-.081.528.528,0,0,0-.351.1.431.431,0,0,0-.081.306l-.009.676h.856v1.144h-.847v4.261h-1.36v-4.261H278.5Z" transform="translate(629.79 973.049)"/>
    <path id="Path_27" data-name="Path 27" class="cls-2" d="M324.676,140.425h-4.36a1.458,1.458,0,0,0,.5.919,1.586,1.586,0,0,0,1.045.342,1.817,1.817,0,0,0,1.306-.531l1.144.541a2.781,2.781,0,0,1-1.027.9,3.148,3.148,0,0,1-1.414.288,2.811,2.811,0,0,1-2.072-.8,2.737,2.737,0,0,1-.8-2.009,2.812,2.812,0,0,1,.8-2.054,2.663,2.663,0,0,1,2-.82,2.775,2.775,0,0,1,2.081.82,2.967,2.967,0,0,1,.8,2.162Zm-1.36-1.072a1.4,1.4,0,0,0-.531-.739,1.522,1.522,0,0,0-.919-.279,1.672,1.672,0,0,0-1,.315,1.8,1.8,0,0,0-.5.7Z" transform="translate(592.938 951.757)"/>
    <path id="Path_28" data-name="Path 28" class="cls-2" d="M398.8,117.5h1.324v4.207l1.946-2.171h1.658l-2.27,2.522,2.54,2.748h-1.64l-2.234-2.432v2.432H398.8Z" transform="translate(520.327 969.682)"/>
    <path id="Path_29" data-name="Path 29" class="cls-2" d="M463.494,117.2h1.342v1.973h.8v1.162h-.8v4.2h-1.342v-4.2H462.8v-1.153h.694Z" transform="translate(462.093 969.955)"/>
    <path id="Path_30" data-name="Path 30" class="cls-2" d="M507.1,137.235h1.36v.622a2.325,2.325,0,0,1,.775-.568,2.249,2.249,0,0,1,.928-.189,1.7,1.7,0,0,1,.919.252,1.8,1.8,0,0,1,.658.73,2.267,2.267,0,0,1,.793-.73,2.22,2.22,0,0,1,1.027-.252,1.91,1.91,0,0,1,1.018.27,1.576,1.576,0,0,1,.631.7,3.78,3.78,0,0,1,.189,1.405v3.171h-1.37V139.9a2.338,2.338,0,0,0-.225-1.243.781.781,0,0,0-.685-.324,1,1,0,0,0-.622.2,1.223,1.223,0,0,0-.414.55,3.406,3.406,0,0,0-.135,1.126v2.441h-1.369v-2.622a3.659,3.659,0,0,0-.108-1.054.969.969,0,0,0-.324-.486.84.84,0,0,0-.522-.162,1,1,0,0,0-.613.2,1.23,1.23,0,0,0-.414.568,3.533,3.533,0,0,0-.135,1.144v2.405H507.1Z" transform="translate(421.783 951.848)"/>
    <path id="Path_31" data-name="Path 31" class="cls-2" d="M619.434,137.144h1.36v5.405h-1.36v-.568a2.591,2.591,0,0,1-.793.541,2.306,2.306,0,0,1-.865.162,2.392,2.392,0,0,1-1.811-.811,2.817,2.817,0,0,1-.766-2.018,2.89,2.89,0,0,1,.739-2.054,2.368,2.368,0,0,1,1.8-.8,2.341,2.341,0,0,1,.91.18,2.566,2.566,0,0,1,.793.55v-.586Zm-1.424,1.117a1.362,1.362,0,0,0-1.045.441,1.6,1.6,0,0,0-.414,1.144,1.624,1.624,0,0,0,.423,1.153,1.383,1.383,0,0,0,1.045.45,1.4,1.4,0,0,0,1.063-.441,1.631,1.631,0,0,0,.423-1.162,1.587,1.587,0,0,0-.423-1.144A1.42,1.42,0,0,0,618.011,138.261Z" transform="translate(323.422 951.939)"/>
    <path id="Path_32" data-name="Path 32" class="cls-2" d="M689.689,138.6h1.577l1.072,1.477L693.4,138.6h1.549l-1.838,2.549,2.072,2.865h-1.576l-1.28-1.775-1.279,1.775H689.5l2.054-2.847Z" transform="translate(255.815 950.483)"/>
  </g>
</svg>
