<svg xmlns="http://www.w3.org/2000/svg" width="450.912" height="110.149" viewBox="0 0 450.912 110.149">
  <g id="Group_8" data-name="Group 8" transform="translate(-53.489 -168)">
    <g id="logo-logo" transform="translate(91.681 211.932)">
      <g id="Group_1" data-name="Group 1" transform="translate(-38.192 -43.932)">
        <path id="Path_1" data-name="Path 1" d="M121.541-110.692,57.362-73.634V-92.679l47.684-27.53,16.495,9.517" transform="translate(-57.362 120.209)" fill="#eb3420"/>
      </g>
      <g id="Group_2" data-name="Group 2" transform="translate(-6.847 19.448)">
        <path id="Path_2" data-name="Path 2" d="M146.468-69.737v19.162L98.647-22.967,82.055-32.553l64.413-37.184" transform="translate(-82.055 69.737)" fill="#5576c3"/>
      </g>
      <g id="Group_3" data-name="Group 3" transform="translate(-3.98 -25.664)">
        <path id="Path_3" data-name="Path 3" d="M140.937-99.271l-56.472,32.6V-78.933L130.3-105.411l10.637,6.14" transform="translate(-84.465 105.411)" fill="#505256"/>
      </g>
      <g id="Group_4" data-name="Group 4" transform="translate(-37.986 3.067)">
        <path id="Path_4" data-name="Path 4" d="M75.865-82.675l-18.5,10.683v19.171L75.865-63.5V-82.675" transform="translate(-57.362 82.675)" fill="#f3b70c"/>
      </g>
      <g id="Group_5" data-name="Group 5" transform="translate(-33.342 8.476)">
        <path id="Path_5" data-name="Path 5" d="M117.8-78.258v12.35L71.81-39.352,61.116-45.532,117.8-78.258" transform="translate(-61.116 78.258)" fill="#505256"/>
      </g>
      <g id="Group_6" data-name="Group 6" transform="translate(38.739 -11.285)">
        <path id="Path_6" data-name="Path 6" d="M118.676-83.225v19.171l18.5-10.683V-93.91l-18.5,10.684" transform="translate(-118.676 93.91)" fill="#37ae44"/>
      </g>
    </g>
    <g id="Group_7" data-name="Group 7" transform="translate(0 -9.15)">
      <g id="text-logo-path" transform="translate(173 200.15)">
        <path id="Path_7" data-name="Path 7" d="M5.2-14.246a1.1,1.1,0,0,0-.368-.874,1.347,1.347,0,0,0-.921-.322,1.375,1.375,0,0,0-.921.322,1.079,1.079,0,0,0-.4.874,7.384,7.384,0,0,0,.46,2.547A6.5,6.5,0,0,0,4.4-9.444,6.748,6.748,0,0,0,6.675-7.833a7.666,7.666,0,0,0,3.206.614h6.413a7.814,7.814,0,0,0,3.237-.614A6.9,6.9,0,0,0,21.8-9.444,6.465,6.465,0,0,0,23.137-11.7a7.834,7.834,0,0,0,.43-2.577,7.721,7.721,0,0,0-.43-2.547A6.465,6.465,0,0,0,21.8-19.079a6.9,6.9,0,0,0-2.271-1.611,8.068,8.068,0,0,0-3.237-.614H10.526a5.558,5.558,0,0,1-2.117-.368,3.941,3.941,0,0,1-1.442-.982,3.893,3.893,0,0,1-.844-1.411,5.074,5.074,0,0,1-.276-1.657,5.052,5.052,0,0,1,.276-1.642,3.893,3.893,0,0,1,.844-1.411,3.941,3.941,0,0,1,1.442-.982,5.558,5.558,0,0,1,2.117-.368H15.65a5.422,5.422,0,0,1,2.1.368,4,4,0,0,1,1.457.982,3.857,3.857,0,0,1,.828,1.411,5.052,5.052,0,0,1,.276,1.642,1.05,1.05,0,0,0,.368.859,1.478,1.478,0,0,0,.921.307,1.491,1.491,0,0,0,.936-.307,1.018,1.018,0,0,0,.384-.859,7.363,7.363,0,0,0-.445-2.547,6.882,6.882,0,0,0-1.35-2.286,6.9,6.9,0,0,0-2.271-1.611,7.972,7.972,0,0,0-3.206-.6H10.526a7.92,7.92,0,0,0-3.206.6,6.748,6.748,0,0,0-2.271,1.611A6.633,6.633,0,0,0,3.7-28.269a7.384,7.384,0,0,0-.46,2.547,7.363,7.363,0,0,0,.46,2.577,6.3,6.3,0,0,0,1.35,2.24,6.509,6.509,0,0,0,2.271,1.6,7.666,7.666,0,0,0,3.206.614h5.769a5.422,5.422,0,0,1,2.1.368,4.065,4.065,0,0,1,1.457,1.013,3.987,3.987,0,0,1,.828,1.411,4.894,4.894,0,0,1,.276,1.626,4.942,4.942,0,0,1-.276,1.657,4.19,4.19,0,0,1-.828,1.427,4.034,4.034,0,0,1-1.457,1,5.422,5.422,0,0,1-2.1.368H9.882A5.558,5.558,0,0,1,7.765-10.2a4.137,4.137,0,0,1-1.442-.982A3.956,3.956,0,0,1,5.479-12.6,5.052,5.052,0,0,1,5.2-14.246ZM31.729-8.324a.807.807,0,0,1,.445.169A9.074,9.074,0,0,0,34.69-6.944a9.96,9.96,0,0,0,2.777.4,9.62,9.62,0,0,0,3.252-.568,8.182,8.182,0,0,0,2.869-1.718,9.135,9.135,0,0,0,2.04-2.9,9.956,9.956,0,0,0,.782-4.1,9.836,9.836,0,0,0-.767-4.081,8.37,8.37,0,0,0-2.04-2.884,8.632,8.632,0,0,0-2.884-1.718,10.013,10.013,0,0,0-3.252-.568,9.96,9.96,0,0,0-2.777.4,7.947,7.947,0,0,0-2.516,1.212.724.724,0,0,1-.476.169.572.572,0,0,1-.414-.184,2.441,2.441,0,0,1-.307-.368,1.2,1.2,0,0,0-1.151-.614,1.428,1.428,0,0,0-.936.338,1.119,1.119,0,0,0-.384.89V.221a.892.892,0,0,0,.4.813,1.653,1.653,0,0,0,.921.245,1.725,1.725,0,0,0,.921-.245.925.925,0,0,0,.4-.813V-7.741a.555.555,0,0,1,.153-.414A.6.6,0,0,1,31.729-8.324Zm5.738-14.1a7.1,7.1,0,0,1,2.347.384,5.7,5.7,0,0,1,2.01,1.2,5.577,5.577,0,0,1,1.411,2.056,7.342,7.342,0,0,1,.537,2.961,7.219,7.219,0,0,1-.537,2.976,5.906,5.906,0,0,1-1.411,2.071A5.576,5.576,0,0,1,39.8-9.567a7.653,7.653,0,0,1-2.332.384,7.674,7.674,0,0,1-2.347-.384,5.576,5.576,0,0,1-2.025-1.212,5.906,5.906,0,0,1-1.411-2.071,7.219,7.219,0,0,1-.537-2.976,7.342,7.342,0,0,1,.537-2.961,5.577,5.577,0,0,1,1.411-2.056,5.76,5.76,0,0,1,2.025-1.2A7.237,7.237,0,0,1,37.467-22.424ZM59.329-6.545A9.707,9.707,0,0,0,62.6-7.112a8.322,8.322,0,0,0,2.869-1.718,8.712,8.712,0,0,0,2.056-2.9,10.216,10.216,0,0,0,.767-4.1,10.088,10.088,0,0,0-.767-4.081A8.546,8.546,0,0,0,65.5-22.792a8.418,8.418,0,0,0-2.869-1.718,10.143,10.143,0,0,0-3.3-.568,10.013,10.013,0,0,0-3.252.568,8.632,8.632,0,0,0-2.884,1.718,8.37,8.37,0,0,0-2.04,2.884,9.836,9.836,0,0,0-.767,4.081,9.956,9.956,0,0,0,.782,4.1,9.134,9.134,0,0,0,2.04,2.9,8.182,8.182,0,0,0,2.869,1.718A9.62,9.62,0,0,0,59.329-6.545Zm0-2.639a7.482,7.482,0,0,1-2.317-.384A5.515,5.515,0,0,1,55-10.779a5.864,5.864,0,0,1-1.427-2.087,7.285,7.285,0,0,1-.552-2.961,7.62,7.62,0,0,1,.522-2.961,5.8,5.8,0,0,1,1.427-2.056A5.627,5.627,0,0,1,57-22.04a7.213,7.213,0,0,1,2.332-.384,7.237,7.237,0,0,1,2.347.384,5.9,5.9,0,0,1,2.025,1.2,5.765,5.765,0,0,1,1.411,2.056,7.613,7.613,0,0,1,.537,2.961,7.559,7.559,0,0,1-.537,2.961A6.036,6.036,0,0,1,63.7-10.779a5.707,5.707,0,0,1-2.025,1.212A7.674,7.674,0,0,1,59.329-9.184ZM75.668-23.789a1.226,1.226,0,0,0-1.227-.706,1.353,1.353,0,0,0-.921.368,1.285,1.285,0,0,0-.4.951V-8.324a1,1,0,0,0,.4.844,1.528,1.528,0,0,0,.921.291,1.466,1.466,0,0,0,.921-.291.962.962,0,0,0,.4-.844v-7.564a7.21,7.21,0,0,1,.552-2.946,5.969,5.969,0,0,1,1.442-2.056,5.9,5.9,0,0,1,2.01-1.181,6.99,6.99,0,0,1,2.317-.384,7.08,7.08,0,0,1,2.332.384,5.638,5.638,0,0,1,2.04,1.212A5.9,5.9,0,0,1,87.865-18.8a7.585,7.585,0,0,1,.537,2.976v7.5a.962.962,0,0,0,.4.844,1.466,1.466,0,0,0,.921.291,1.528,1.528,0,0,0,.921-.291,1,1,0,0,0,.4-.844v-7.533a9.956,9.956,0,0,0-.782-4.1,8.459,8.459,0,0,0-2.04-2.884,8.7,8.7,0,0,0-2.884-1.7,10.013,10.013,0,0,0-3.252-.568,9.439,9.439,0,0,0-2.777.414,8.537,8.537,0,0,0-2.5,1.2.862.862,0,0,1-.491.169A.708.708,0,0,1,75.668-23.789Zm27.293-1.243a8.917,8.917,0,0,0-1.227.077,8.015,8.015,0,0,0-1.4.276,6.98,6.98,0,0,0-1.427.537,6.689,6.689,0,0,0-1.273.874,4.181,4.181,0,0,0-.967,1.381,4.193,4.193,0,0,0-.322,1.611,4.293,4.293,0,0,0,.261,1.457,4,4,0,0,0,.813,1.319,3.813,3.813,0,0,0,1.135.828,8.848,8.848,0,0,0,1.473.552,10.78,10.78,0,0,0,1.55.353c.506.092.982.153,1.411.2.476.061.967.138,1.5.245a4.934,4.934,0,0,1,1.411.476,3.413,3.413,0,0,1,1.043.874,2.2,2.2,0,0,1,.43,1.4.9.9,0,0,1-.031.2c0,.061-.015.123-.015.184a2.8,2.8,0,0,1-.522,1.365,3.637,3.637,0,0,1-1.059.936,4.68,4.68,0,0,1-1.365.522,6.217,6.217,0,0,1-1.457.184h-.322a2.289,2.289,0,0,1-.322-.031,6.514,6.514,0,0,1-2.347-.721,6.369,6.369,0,0,1-1.918-1.534c-.2-.261-.43-.552-.675-.89a1.1,1.1,0,0,0-.967-.506,1.144,1.144,0,0,0-.614.184,1.646,1.646,0,0,0-.476.445,1.5,1.5,0,0,0-.245.629,1.259,1.259,0,0,0,.123.706,5.841,5.841,0,0,0,1.2,1.688,9.267,9.267,0,0,0,1.688,1.289,11.166,11.166,0,0,0,1.933.905,8.6,8.6,0,0,0,2.01.445,4.335,4.335,0,0,0,.445.031h.46a8.751,8.751,0,0,0,2.439-.338,7.341,7.341,0,0,0,2.163-1,6.191,6.191,0,0,0,1.626-1.657,5.562,5.562,0,0,0,.828-2.363c.015-.169.031-.322.046-.445,0-.123.015-.261.015-.414a4.762,4.762,0,0,0-.552-2.393,4.583,4.583,0,0,0-1.488-1.58,7.492,7.492,0,0,0-2.133-.936,21.1,21.1,0,0,0-2.562-.476c-.322-.046-.721-.092-1.212-.123a7.032,7.032,0,0,1-1.4-.276,2.978,2.978,0,0,1-1.166-.644,1.539,1.539,0,0,1-.476-1.212,1.357,1.357,0,0,1,.368-.967,2.709,2.709,0,0,1,.951-.629,6.064,6.064,0,0,1,1.289-.353,8.746,8.746,0,0,1,1.411-.107,6.616,6.616,0,0,1,3.713,1.151,2.713,2.713,0,0,0,.338.245.745.745,0,0,0,.43.107,1.531,1.531,0,0,0,.905-.307,1.3,1.3,0,0,0,.552-.844,1.137,1.137,0,0,0-.4-1.1,5.364,5.364,0,0,0-.46-.353A8.678,8.678,0,0,0,107-24.188a11.873,11.873,0,0,0-1.734-.6A9.538,9.538,0,0,0,102.961-25.032ZM131.9-8.447v-14.79a1.1,1.1,0,0,0-.43-.936,1.529,1.529,0,0,0-.967-.322,1.516,1.516,0,0,0-.675.169,1.021,1.021,0,0,0-.476.506.991.991,0,0,1-.276.338.6.6,0,0,1-.4.153.811.811,0,0,1-.46-.169,8.349,8.349,0,0,0-2.531-1.2,9.389,9.389,0,0,0-2.746-.414,9.942,9.942,0,0,0-3.252.568,8.478,8.478,0,0,0-2.869,1.7,8.932,8.932,0,0,0-2.056,2.884,9.956,9.956,0,0,0-.782,4.1,9.956,9.956,0,0,0,.782,4.1,9.171,9.171,0,0,0,2.056,2.9,8.047,8.047,0,0,0,2.869,1.718,9.556,9.556,0,0,0,3.252.568,9.909,9.909,0,0,0,2.746-.4,8.765,8.765,0,0,0,2.531-1.212.811.811,0,0,1,.46-.169.732.732,0,0,1,.675.46,1.055,1.055,0,0,0,.476.522,1.355,1.355,0,0,0,.675.184,1.529,1.529,0,0,0,.967-.322A1.079,1.079,0,0,0,131.9-8.447Zm-8.96-14.007a7.146,7.146,0,0,1,2.332.384,5.82,5.82,0,0,1,2.025,1.181,5.668,5.668,0,0,1,1.427,2.071,7.567,7.567,0,0,1,.522,2.961,7.542,7.542,0,0,1-.522,2.976,5.939,5.939,0,0,1-1.427,2.071,5.417,5.417,0,0,1-2.025,1.2,7.163,7.163,0,0,1-2.332.4,7.094,7.094,0,0,1-2.332-.4,5.6,5.6,0,0,1-2.04-1.2,6.117,6.117,0,0,1-1.411-2.071,7.532,7.532,0,0,1-.537-2.976,7.559,7.559,0,0,1,.537-2.961,5.83,5.83,0,0,1,1.411-2.071,6.2,6.2,0,0,1,2.01-1.181A7.2,7.2,0,0,1,122.936-22.454Zm25.544-1.365-5.063,11.951L138.37-23.743a1.1,1.1,0,0,0-.69-.69,1.527,1.527,0,0,0-1,.107,1.645,1.645,0,0,0-.752.644,1.064,1.064,0,0,0-.015.967L141.776-9a1.366,1.366,0,0,1,0,1.043l-1.151,2.7a6.889,6.889,0,0,1-2.5,3.222,5.928,5.928,0,0,1-3.206.967,6.8,6.8,0,0,1-1.381-.153,12.057,12.057,0,0,1-1.319-.43,1.159,1.159,0,0,0-.905.046,1.3,1.3,0,0,0-.675.767,1.361,1.361,0,0,0-.015,1.013,1.034,1.034,0,0,0,.552.629,13.813,13.813,0,0,0,1.81.568,8.805,8.805,0,0,0,1.9.2,8.3,8.3,0,0,0,2.363-.338A8.441,8.441,0,0,0,139.49.206a8.973,8.973,0,0,0,1.979-1.8,10.006,10.006,0,0,0,1.565-2.639l7.87-18.548a1.189,1.189,0,0,0-.015-.859,1.37,1.37,0,0,0-.767-.721,1.237,1.237,0,0,0-.967-.015A1.046,1.046,0,0,0,148.481-23.82Z" transform="translate(-2.594 32.764)" fill="#505256"/>
      </g>
      <path id="Path_1-2" data-name="Path 1" d="M12.158-6.672H3.6V-30.237h8.561q11.706,0,11.706,11.138h0q0,12.427-11.706,12.427Zm-5.523-21.1V-9.142h5.523q8.653,0,8.653-9.957h0q0-8.668-8.653-8.668H6.634Zm24.731,21.1H28.313V-23.977h3.053Zm0-20.681H28.313v-2.884h3.053Zm4.449,8.315h0q0-4.94,7.2-4.94h0a23.4,23.4,0,0,1,6.152.828h0v2.639a19.706,19.706,0,0,0-6.152-1h0q-4.311,0-4.311,2.47h0q0,2.317,2.716,2.317h2.47q5.937,0,5.937,5.109h0q0,4.94-7.2,4.94h0A23.281,23.281,0,0,1,36.474-7.5h0v-2.639a19.61,19.61,0,0,0,6.152,1h0q4.142,0,4.142-2.47h0q0-2.317-2.884-2.317h-2.47Q35.815-13.928,35.815-19.037ZM53.12-15.647h0q0-8.331,9.22-8.331h0a20.7,20.7,0,0,1,4.618.491h0v2.47a21.522,21.522,0,0,0-4.787-.491h0q-6.014,0-6.014,5.861h0q0,6.5,6.014,6.5h0a21.522,21.522,0,0,0,4.787-.491h0v2.47a20.7,20.7,0,0,1-4.618.491h0Q53.12-6.672,53.12-15.647Zm16.891.322h0q0-8.653,8.239-8.653h0q8.239,0,8.239,8.653h0q0,8.637-8.239,8.637h0Q70.043-6.687,70.012-15.324Zm3.038-.061h0q0,6.244,5.2,6.244h0q5.186,0,5.186-6.244h0q0-6.121-5.186-6.121h0Q73.05-21.507,73.05-15.386ZM94.743-6.672,88.131-23.977h3.3L96.4-10.415l4.925-13.562h3.3L97.581-6.672Zm11.522-8.852h0q0-8.453,7.962-8.453h0q7.379,0,7.379,7.3h0a17.317,17.317,0,0,1-.153,2.225H109.318q0,5.308,6.2,5.308h0a18.9,18.9,0,0,0,5.232-.66h0v2.47a20.321,20.321,0,0,1-5.569.66h0Q106.265-6.672,106.265-15.524Zm3.053-1.457h9.359q-.107-4.557-4.449-4.557h0Q109.609-21.538,109.318-16.981Zm19.438,10.31h-3.038V-23.977h2.056l.537,2.209a7.6,7.6,0,0,1,5.477-2.209h0v2.531a6.391,6.391,0,0,0-5.032,2.194h0Zm15.5-16.968h0q0-6.766,9.481-6.766h0a28.167,28.167,0,0,1,7.656,1h0v2.792a21.77,21.77,0,0,0-7.656-1.319h0q-6.428,0-6.428,4.3h0q0,3.789,4.342,3.789h3.038q7.533,0,7.533,6.428h0q0,6.919-9.128,6.919h0a30.671,30.671,0,0,1-8.008-1h0v-2.792a23.662,23.662,0,0,0,8.008,1.319h0q6.075,0,6.075-4.449h0q0-3.8-4.48-3.8h-3.038Q144.251-17.227,144.251-23.64ZM169.381-.412h-3.038V-23.272a35.3,35.3,0,0,1,7.119-.706h0q8.315,0,8.315,8.223h0q0,9.082-8.377,9.082h0a10.176,10.176,0,0,1-4.02-.828h0Zm0-20.635V-10.2a8.891,8.891,0,0,0,4,.89h0q5.4,0,5.4-6.474h0q0-5.661-5.37-5.661h0a18.134,18.134,0,0,0-4.035.4Zm15.695,5.723h0q0-8.653,8.239-8.653h0q8.239,0,8.239,8.653h0q0,8.637-8.239,8.637h0Q185.107-6.687,185.076-15.324Zm3.053-.061h0q0,6.244,5.186,6.244h0q5.186,0,5.186-6.244h0q0-6.121-5.186-6.121h0Q188.129-21.507,188.129-15.386Zm20.589,8.714H205.68V-23.977h2.056l.537,2.209a8.931,8.931,0,0,1,5.845-2.209h0q6.474,0,6.474,6.444h0V-6.672H217.54V-17.58q0-3.866-3.835-3.866h0a7.263,7.263,0,0,0-4.986,2.194h0ZM224.7-19.037h0q0-4.94,7.211-4.94h0a23.4,23.4,0,0,1,6.152.828h0v2.639a19.706,19.706,0,0,0-6.152-1h0q-4.326,0-4.326,2.47h0q0,2.317,2.731,2.317h2.47q5.922,0,5.922,5.109h0q0,4.94-7.18,4.94h0a23.452,23.452,0,0,1-6.167-.828h0v-2.639a19.752,19.752,0,0,0,6.167,1h0q4.142,0,4.142-2.47h0q0-2.317-2.884-2.317h-2.47Q224.7-13.928,224.7-19.037Zm17.306,3.713h0q0-8.653,8.239-8.653h0q8.254,0,8.254,8.653h0q0,8.637-8.254,8.637h0Q242.041-6.687,242.01-15.324Zm3.053-.061h0q0,6.244,5.186,6.244h0q5.2,0,5.2-6.244h0q0-6.121-5.2-6.121h0Q245.063-21.507,245.063-15.386Zm20.6,8.714h-3.053V-23.977h2.056l.552,2.209a7.551,7.551,0,0,1,5.462-2.209h0v2.531a6.374,6.374,0,0,0-5.017,2.194h0Zm7.257-12.366h0q0-4.94,7.2-4.94h0a23.4,23.4,0,0,1,6.152.828h0v2.639a19.706,19.706,0,0,0-6.152-1h0q-4.326,0-4.326,2.47h0q0,2.317,2.731,2.317h2.47q5.937,0,5.937,5.109h0q0,4.94-7.2,4.94h0a23.451,23.451,0,0,1-6.167-.828h0v-2.639a19.752,19.752,0,0,0,6.167,1h0q4.142,0,4.142-2.47h0q0-2.317-2.884-2.317h-2.47Q272.924-13.928,272.924-19.037ZM294.1-6.672h-3.053V-30.237H294.1v8.147a8.008,8.008,0,0,1,5.385-1.887h0q6.474,0,6.474,6.444h0V-6.672h-3.038V-17.58q0-3.866-3.851-3.866h0a7.21,7.21,0,0,0-4.971,2.194h0Zm20.19,0h-3.053V-23.977h3.053Zm0-20.681h-3.053v-2.884h3.053ZM322.6-.412h-3.038V-23.272a35.3,35.3,0,0,1,7.119-.706h0q8.315,0,8.315,8.223h0q0,9.082-8.377,9.082h0A10.176,10.176,0,0,1,322.6-7.5h0Zm0-20.635V-10.2a8.891,8.891,0,0,0,4,.89h0q5.4,0,5.4-6.474h0q0-5.661-5.37-5.661h0a18.134,18.134,0,0,0-4.035.4Z" transform="translate(169.403 263.799)" fill="#37ae44"/>
    </g>
  </g>
</svg>
