<?xml version="1.0" encoding="UTF-8"?>
<svg width="106px" height="22px" viewBox="0 0 106 22" version="1.1" xmlns="http://www.w3.org/2000/svg" xmlns:xlink="http://www.w3.org/1999/xlink">
    <!-- Generator: Sketch 55.1 (78136) - https://sketchapp.com -->
    <title>Combined Shape</title>
    <desc>Created with Sketch.</desc>
    <defs>
        <path d="M118.04,89.624 C118.04,89.1119974 117.852002,88.6960016 117.476,88.376 C117.099998,88.0559984 116.628003,87.7640013 116.06,87.5 C115.491997,87.2359987 114.876003,86.9640014 114.212,86.684 C113.547997,86.4039986 112.932003,86.060002 112.364,85.652 C111.795997,85.243998 111.324002,84.736003 110.948,84.128 C110.571998,83.519997 110.384,82.7440047 110.384,81.8 C110.384,80.9839959 110.519999,80.276003 110.792,79.676 C111.064001,79.075997 111.451997,78.576002 111.956,78.176 C112.460003,77.775998 113.055997,77.480001 113.744,77.288 C114.432003,77.095999 115.199996,77 116.048,77 C117.024005,77 117.943996,77.0839992 118.808,77.252 C119.672004,77.4200008 120.383997,77.6639984 120.944,77.984 L119.912,80.744 C119.559998,80.5199989 119.032004,80.3160009 118.328,80.132 C117.623996,79.9479991 116.864004,79.856 116.048,79.856 C115.279996,79.856 114.692002,80.0079985 114.284,80.312 C113.875998,80.6160015 113.672,81.0239974 113.672,81.536 C113.672,82.0160024 113.859998,82.4159984 114.236,82.736 C114.612002,83.0560016 115.083997,83.3519986 115.652,83.624 C116.220003,83.8960014 116.835997,84.1759986 117.5,84.464 C118.164003,84.7520014 118.779997,85.099998 119.348,85.508 C119.916003,85.916002 120.387998,86.419997 120.764,87.02 C121.140002,87.620003 121.328,88.3679955 121.328,89.264 C121.328,90.1600045 121.180001,90.9319968 120.884,91.58 C120.587999,92.2280032 120.172003,92.7679978 119.636,93.2 C119.099997,93.6320022 118.452004,93.951999 117.692,94.16 C116.931996,94.368001 116.096005,94.472 115.184,94.472 C113.983994,94.472 112.928005,94.3600011 112.016,94.136 C111.103995,93.9119989 110.432002,93.6880011 110,93.464 L111.056,90.656 C111.232001,90.7520005 111.459999,90.8559994 111.74,90.968 C112.020001,91.0800006 112.335998,91.1839995 112.688,91.28 C113.040002,91.3760005 113.411998,91.4559997 113.804,91.52 C114.196002,91.5840003 114.599998,91.616 115.016,91.616 C115.992005,91.616 116.739997,91.4520016 117.26,91.124 C117.780003,90.7959984 118.04,90.2960034 118.04,89.624 Z M123.44,82.136 L125.72,82.136 L126.08,83.576 L126.176,83.576 C126.592002,82.967997 127.083997,82.5200014 127.652,82.232 C128.220003,81.9439986 128.911996,81.8 129.728,81.8 C131.232008,81.8 132.359996,82.2759952 133.112,83.228 C133.864004,84.1800048 134.24,85.7119894 134.24,87.824 C134.24,88.8480051 134.120001,89.7719959 133.88,90.596 C133.639999,91.4200041 133.284002,92.1199971 132.812,92.696 C132.339998,93.2720029 131.764003,93.7119985 131.084,94.016 C130.403997,94.3200015 129.624004,94.472 128.744,94.472 C128.247998,94.472 127.840002,94.4360004 127.52,94.364 C127.199998,94.2919996 126.880002,94.1760008 126.56,94.016 L126.56,98.936 L123.44,98.936 L123.44,82.136 Z M128.792,84.44 C128.183997,84.44 127.708002,84.5919985 127.364,84.896 C127.019998,85.2000015 126.752001,85.655997 126.56,86.264 L126.56,91.256 C126.784001,91.4320009 127.027999,91.5719995 127.292,91.676 C127.556001,91.7800005 127.903998,91.832 128.336,91.832 C129.232004,91.832 129.903998,91.5160032 130.352,90.884 C130.800002,90.2519968 131.024,89.2080073 131.024,87.752 C131.024,86.6959947 130.848002,85.8800029 130.496,85.304 C130.143998,84.7279971 129.576004,84.44 128.792,84.44 Z M135.824,88.136 C135.824,86.1039898 136.319995,84.5400055 137.312,83.444 C138.304005,82.3479945 139.695991,81.8 141.488,81.8 C142.448005,81.8 143.279996,81.9519985 143.984,82.256 C144.688004,82.5600015 145.271998,82.9879972 145.736,83.54 C146.200002,84.0920028 146.547999,84.7599961 146.78,85.544 C147.012001,86.3280039 147.128,87.1919953 147.128,88.136 C147.128,90.1680102 146.636005,91.7319945 145.652,92.828 C144.667995,93.9240055 143.280009,94.472 141.488,94.472 C140.527995,94.472 139.696004,94.3200015 138.992,94.016 C138.287996,93.7119985 137.700002,93.2840028 137.228,92.732 C136.755998,92.1799972 136.404001,91.5120039 136.172,90.728 C135.939999,89.9439961 135.824,89.0800047 135.824,88.136 Z M139.04,88.136 C139.04,88.6640026 139.088,89.1519978 139.184,89.6 C139.28,90.0480022 139.423999,90.44 139.616,90.776 C139.808001,91.1120017 140.059998,91.3719991 140.372,91.556 C140.684002,91.7400009 141.055998,91.832 141.488,91.832 C142.304004,91.832 142.911998,91.536003 143.312,90.944 C143.712002,90.351997 143.912,89.4160064 143.912,88.136 C143.912,87.0319945 143.728002,86.1400034 143.36,85.46 C142.991998,84.7799966 142.368004,84.44 141.488,84.44 C140.719996,84.44 140.120002,84.7279971 139.688,85.304 C139.255998,85.8800029 139.04,86.8239934 139.04,88.136 Z M156.632,94.136 L156.632,87.32 C156.632,86.3439951 156.492001,85.6400022 156.212,85.208 C155.931999,84.7759978 155.456003,84.56 154.784,84.56 C154.191997,84.56 153.692002,84.7319983 153.284,85.076 C152.875998,85.4200017 152.584001,85.8479974 152.408,86.36 L152.408,94.136 L149.288,94.136 L149.288,82.136 L151.76,82.136 L152.12,83.72 L152.216,83.72 C152.584002,83.2079974 153.071997,82.7600019 153.68,82.376 C154.288,81.9919981 155.071995,81.8 156.032,81.8 C156.624003,81.8 157.151998,81.8799992 157.616,82.04 C158.080002,82.2000008 158.471998,82.4639982 158.792,82.832 C159.112002,83.2000018 159.351999,83.6999968 159.512,84.332 C159.672001,84.9640032 159.752,85.7439954 159.752,86.672 L159.752,94.136 L156.632,94.136 Z M167.336,90.824 C167.336,90.5039984 167.200001,90.248001 166.928,90.056 C166.655999,89.863999 166.320002,89.6880008 165.92,89.528 C165.519998,89.3679992 165.080002,89.2040008 164.6,89.036 C164.119998,88.8679992 163.680002,88.6360015 163.28,88.34 C162.879998,88.0439985 162.544001,87.6680023 162.272,87.212 C161.999999,86.7559977 161.864,86.1680036 161.864,85.448 C161.864,84.2639941 162.215996,83.3600031 162.92,82.736 C163.624004,82.1119969 164.639993,81.8 165.968,81.8 C166.880005,81.8 167.703996,81.895999 168.44,82.088 C169.176004,82.280001 169.751998,82.4959988 170.168,82.736 L169.472,84.992 C169.103998,84.8479993 168.640003,84.6960008 168.08,84.536 C167.519997,84.3759992 166.952003,84.296 166.376,84.296 C165.447995,84.296 164.984,84.6559964 164.984,85.376 C164.984,85.6640014 165.119999,85.8959991 165.392,86.072 C165.664001,86.2480009 165.999998,86.4119992 166.4,86.564 C166.800002,86.7160008 167.239998,86.8799991 167.72,87.056 C168.200002,87.2320009 168.639998,87.4599986 169.04,87.74 C169.440002,88.0200014 169.775999,88.3839978 170.048,88.832 C170.320001,89.2800022 170.456,89.8559965 170.456,90.56 C170.456,91.7760061 170.068004,92.7319965 169.292,93.428 C168.515996,94.1240035 167.352008,94.472 165.8,94.472 C164.951996,94.472 164.156004,94.3640011 163.412,94.148 C162.667996,93.9319989 162.064002,93.6800014 161.6,93.392 L162.464,91.064 C162.832002,91.272001 163.319997,91.475999 163.928,91.676 C164.536003,91.876001 165.159997,91.976 165.8,91.976 C166.264002,91.976 166.635999,91.8880009 166.916,91.712 C167.196001,91.5359991 167.336,91.2400021 167.336,90.824 Z M171.92,88.136 C171.92,86.1039898 172.415995,84.5400055 173.408,83.444 C174.400005,82.3479945 175.791991,81.8 177.584,81.8 C178.544005,81.8 179.375996,81.9519985 180.08,82.256 C180.784004,82.5600015 181.367998,82.9879972 181.832,83.54 C182.296002,84.0920028 182.643999,84.7599961 182.876,85.544 C183.108001,86.3280039 183.224,87.1919953 183.224,88.136 C183.224,90.1680102 182.732005,91.7319945 181.748,92.828 C180.763995,93.9240055 179.376009,94.472 177.584,94.472 C176.623995,94.472 175.792004,94.3200015 175.088,94.016 C174.383996,93.7119985 173.796002,93.2840028 173.324,92.732 C172.851998,92.1799972 172.500001,91.5120039 172.268,90.728 C172.035999,89.9439961 171.92,89.0800047 171.92,88.136 Z M175.136,88.136 C175.136,88.6640026 175.184,89.1519978 175.28,89.6 C175.376,90.0480022 175.519999,90.44 175.712,90.776 C175.904001,91.1120017 176.155998,91.3719991 176.468,91.556 C176.780002,91.7400009 177.151998,91.832 177.584,91.832 C178.400004,91.832 179.007998,91.536003 179.408,90.944 C179.808002,90.351997 180.008,89.4160064 180.008,88.136 C180.008,87.0319945 179.824002,86.1400034 179.456,85.46 C179.087998,84.7799966 178.464004,84.44 177.584,84.44 C176.815996,84.44 176.216002,84.7279971 175.784,85.304 C175.351998,85.8800029 175.136,86.8239934 175.136,88.136 Z M192.008,85.064 C191.511998,84.8879991 191.064002,84.8 190.664,84.8 C190.103997,84.8 189.636002,84.9479985 189.26,85.244 C188.884,85.5400015 188.632001,85.9199977 188.504,86.384 L188.504,94.136 L185.384,94.136 L185.384,82.136 L187.808,82.136 L188.168,83.72 L188.264,83.72 C188.536001,83.127997 188.903998,82.6720016 189.368,82.352 C189.832002,82.0319984 190.375997,81.872 191,81.872 C191.416002,81.872 191.887997,81.9599991 192.416,82.136 L192.008,85.064 Z M200.432,85.064 C199.935998,84.8879991 199.488002,84.8 199.088,84.8 C198.527997,84.8 198.060002,84.9479985 197.684,85.244 C197.308,85.5400015 197.056001,85.9199977 196.928,86.384 L196.928,94.136 L193.808,94.136 L193.808,82.136 L196.232,82.136 L196.592,83.72 L196.688,83.72 C196.960001,83.127997 197.327998,82.6720016 197.792,82.352 C198.256002,82.0319984 198.799997,81.872 199.424,81.872 C199.840002,81.872 200.311997,81.9599991 200.84,82.136 L200.432,85.064 Z M207.922,80.356 L205.882,80.356 L205.882,86.136 L204.512,86.136 L204.512,80.356 L202.462,80.356 L202.462,79.136 L207.922,79.136 L207.922,80.356 Z M214.062,82.506 L214.212,81.116 L214.152,81.116 L213.722,82.236 L212.232,84.846 L211.792,84.846 L210.222,82.226 L209.782,81.116 L209.732,81.116 L209.932,82.496 L209.932,86.136 L208.632,86.136 L208.632,79.136 L209.882,79.136 L211.752,82.336 L212.082,83.136 L212.122,83.136 L212.422,82.316 L214.192,79.136 L215.432,79.136 L215.432,86.136 L214.062,86.136 L214.062,82.506 Z" id="path-1"></path>
    </defs>
    <g id="Page-1" stroke="none" stroke-width="1" fill="none" fill-rule="evenodd">
        <g id="az" transform="translate(-110.000000, -77.000000)" fill="#000000" fill-rule="nonzero">
            <g id="Combined-Shape">
                <use xlink:href="#path-1"></use>
                <use xlink:href="#path-1"></use>
            </g>
        </g>
    </g>
</svg>