<svg xmlns="http://www.w3.org/2000/svg" viewBox="0 0 65.838 8.725">
  <defs>
    <style>
      .cls-1 {
        fill: #2c3e50;
      }

      .cls-2 {
        fill: #e64c3c;
      }
    </style>
  </defs>
  <g id="Group_29" data-name="Group 29" transform="translate(-1069.162 -1086.154)">
    <path id="Path_41" data-name="Path 41" class="cls-1" d="M198,2.2h1.33a4.487,4.487,0,0,1,1.557.191,1.6,1.6,0,0,1,.747.647,1.971,1.971,0,0,1,.282,1.075,1.823,1.823,0,0,1-.31,1.093,1.932,1.932,0,0,1-.938.665l1.567,2.942H200.86l-1.485-2.805h-.118V8.812H198Zm1.257,2.587h.392a1.614,1.614,0,0,0,.829-.155.589.589,0,0,0,.228-.519.624.624,0,0,0-.109-.373.581.581,0,0,0-.3-.228,2.3,2.3,0,0,0-.692-.073h-.346Z" transform="translate(889.195 1084.154)"/>
    <path id="Path_42" data-name="Path 42" class="cls-1" d="M260.082,22.2h-3.9a1.276,1.276,0,0,0,.455.82,1.432,1.432,0,0,0,.938.3,1.587,1.587,0,0,0,1.166-.474l1.02.483a2.4,2.4,0,0,1-.92.8,2.854,2.854,0,0,1-1.266.264,2.512,2.512,0,0,1-1.858-.719,2.465,2.465,0,0,1-.72-1.8,2.543,2.543,0,0,1,.71-1.84A2.382,2.382,0,0,1,257.5,19.3a2.49,2.49,0,0,1,1.858.729,2.663,2.663,0,0,1,.72,1.931Zm-1.211-.956a1.187,1.187,0,0,0-.474-.656,1.349,1.349,0,0,0-.82-.255,1.449,1.449,0,0,0-.893.282,1.549,1.549,0,0,0-.446.628Z" transform="translate(837.386 1068.612)"/>
    <path id="Path_43" data-name="Path 43" class="cls-1" d="M326.9,2h1.184V8.648H326.9v-.6a2.238,2.238,0,0,1-.692.474,1.9,1.9,0,0,1-.756.146,2.107,2.107,0,0,1-1.585-.71,2.478,2.478,0,0,1-.665-1.767,2.551,2.551,0,0,1,.647-1.794,2.063,2.063,0,0,1,1.566-.7,2,2,0,0,1,.8.164,2.167,2.167,0,0,1,.692.483V2Zm-1.239,2.8a1.173,1.173,0,0,0-.911.392,1.377,1.377,0,0,0-.364.993,1.428,1.428,0,0,0,.373,1.011,1.187,1.187,0,0,0,.911.392,1.211,1.211,0,0,0,.929-.392,1.414,1.414,0,0,0,.364-1.02,1.385,1.385,0,0,0-.364-1A1.3,1.3,0,0,0,325.659,4.8Z" transform="translate(775.397 1084.336)"/>
    <path id="Path_44" data-name="Path 44" class="cls-1" d="M396.875,2V4.341a2.167,2.167,0,0,1,.692-.483,1.971,1.971,0,0,1,.8-.164,2.05,2.05,0,0,1,1.566.7,2.551,2.551,0,0,1,.647,1.794,2.478,2.478,0,0,1-.665,1.767,2.107,2.107,0,0,1-1.585.71,1.865,1.865,0,0,1-.756-.146,2.442,2.442,0,0,1-.7-.474v.6H395.7V2Zm1.239,2.8a1.236,1.236,0,0,0-.929.383,1.37,1.37,0,0,0-.364,1,1.429,1.429,0,0,0,.364,1.02,1.244,1.244,0,0,0,.929.392,1.186,1.186,0,0,0,.911-.392,1.428,1.428,0,0,0,.373-1.011,1.377,1.377,0,0,0-.364-.993A1.157,1.157,0,0,0,398.114,4.8Z" transform="translate(709.5 1084.336)"/>
    <path id="Path_45" data-name="Path 45" class="cls-1" d="M462.409,20.628h1.047v.61a1.342,1.342,0,0,1,.446-.546,1.053,1.053,0,0,1,.61-.191,1.161,1.161,0,0,1,.492.128l-.383,1.047a.815.815,0,0,0-.355-.109.554.554,0,0,0-.474.346,3.18,3.18,0,0,0-.191,1.357v2.195h-1.2V20.628Z" transform="translate(648.875 1067.521)"/>
    <path id="Path_46" data-name="Path 46" class="cls-1" d="M499.074,0a.743.743,0,0,1,.546.228.755.755,0,0,1,.228.565.749.749,0,0,1-.228.556.723.723,0,0,1-.537.228.758.758,0,0,1-.556-.237A.77.77,0,0,1,498.3.774a.743.743,0,0,1,.228-.546A.743.743,0,0,1,499.074,0Zm-.6,1.995h1.211V6.831h-1.211Z" transform="translate(616.245 1086.154)"/>
    <path id="Path_47" data-name="Path 47" class="cls-1" d="M531,1.9h1.184V8.548H531V7.957a2.239,2.239,0,0,1-.692.474,1.9,1.9,0,0,1-.756.146,2.107,2.107,0,0,1-1.585-.71A2.479,2.479,0,0,1,527.3,6.1a2.552,2.552,0,0,1,.647-1.794,2.069,2.069,0,0,1,1.576-.7,2,2,0,0,1,.8.164,2.169,2.169,0,0,1,.692.483V1.9ZM529.75,4.7a1.173,1.173,0,0,0-.911.392,1.384,1.384,0,0,0-.365,1,1.429,1.429,0,0,0,.373,1.011,1.186,1.186,0,0,0,.911.392,1.211,1.211,0,0,0,.929-.392,1.414,1.414,0,0,0,.364-1.02,1.384,1.384,0,0,0-.364-1A1.27,1.27,0,0,0,529.75,4.7Z" transform="translate(589.886 1084.427)"/>
    <path id="Path_48" data-name="Path 48" class="cls-1" d="M601,20.628h1.211v4.144a2.735,2.735,0,0,1-.492,1.8,2.489,2.489,0,0,1-1.995.783,3.46,3.46,0,0,1-1.193-.182,2.248,2.248,0,0,1-.82-.519,2.088,2.088,0,0,1-.492-.838h1.33a1.157,1.157,0,0,0,.455.31,1.825,1.825,0,0,0,.665.1,1.707,1.707,0,0,0,.783-.155.882.882,0,0,0,.419-.392,2.007,2.007,0,0,0,.118-.829,2.134,2.134,0,0,1-.674.464,2.311,2.311,0,0,1-2.441-.565,2.719,2.719,0,0,1,.037-3.625,2.169,2.169,0,0,1,2.331-.474,2.556,2.556,0,0,1,.747.5v-.528Zm-1.257,1.011a1.262,1.262,0,0,0-.947.383,1.457,1.457,0,0,0,.009,1.958,1.3,1.3,0,0,0,.956.383,1.236,1.236,0,0,0,.929-.383A1.508,1.508,0,0,0,600.679,22,1.249,1.249,0,0,0,599.741,21.638Z" transform="translate(526.352 1067.521)"/>
    <path id="Path_49" data-name="Path 49" class="cls-1" d="M672.091,22.2h-3.907a1.276,1.276,0,0,0,.455.82,1.431,1.431,0,0,0,.938.3,1.588,1.588,0,0,0,1.166-.474l1.02.483a2.4,2.4,0,0,1-.92.8,2.854,2.854,0,0,1-1.266.264,2.512,2.512,0,0,1-1.858-.719,2.464,2.464,0,0,1-.72-1.8,2.542,2.542,0,0,1,.711-1.84A2.381,2.381,0,0,1,669.5,19.3a2.491,2.491,0,0,1,1.858.729,2.663,2.663,0,0,1,.72,1.931Zm-1.22-.956a1.187,1.187,0,0,0-.474-.656,1.349,1.349,0,0,0-.82-.255,1.449,1.449,0,0,0-.892.282,1.548,1.548,0,0,0-.446.628Z" transform="translate(462.909 1068.612)"/>
    <path id="Union_1" data-name="Union 1" class="cls-2" d="M-1436,6.612V4.973h1.746l2.352-1.882v-1.4h2.46v.969l1.675.67h1.7l2.359-1.9V0h2.459V1.694h-1.774l-2.325,1.876v1.4h-2.459V4l-1.675-.67h-1.709l-2.354,1.881v1.4Z" transform="translate(2505.162 1086.354)"/>
  </g>
</svg>
