<svg xmlns="http://www.w3.org/2000/svg" viewBox="0 0 66.394 12.07">
  <defs>
    <style>
      .cls-1 {
        fill: #3497da;
      }

      .cls-2 {
        fill: #2c3e50;
      }
    </style>
  </defs>
  <g id="Group_23" data-name="Group 23" transform="translate(0)">
    <rect id="Rectangle_41" data-name="Rectangle 41" class="cls-1" width="2.386" height="11.955" transform="translate(0 0.115)"/>
    <rect id="Rectangle_44" data-name="Rectangle 44" class="cls-1" width="2.386" height="8.774" transform="translate(3.976 0.115)"/>
    <rect id="Rectangle_45" data-name="Rectangle 45" class="cls-1" width="2.386" height="10.365" transform="translate(7.952 0.115)"/>
    <rect id="Rectangle_47" data-name="Rectangle 47" class="cls-1" width="2.386" height="7.131" transform="translate(11.929 0.115)"/>
    <g id="Group_16" data-name="Group 16" transform="translate(17.239)">
      <path id="Path_33" data-name="Path 33" class="cls-2" d="M195.1,2h1.378l1.767,4.992L200.031,2h1.37l-2.527,7.025h-1.29Z" transform="translate(-195.1 -1.823)"/>
      <path id="Path_34" data-name="Path 34" class="cls-2" d="M282.773,21.333h1.308v5.2h-1.308V25.98A2.632,2.632,0,0,1,282,26.5a2.14,2.14,0,0,1-.831.159,2.3,2.3,0,0,1-1.741-.778,2.74,2.74,0,0,1-.733-1.944,2.805,2.805,0,0,1,.707-1.97,2.271,2.271,0,0,1,1.723-.769,2.242,2.242,0,0,1,.875.177,2.28,2.28,0,0,1,.76.53v-.574ZM281.4,22.4a1.335,1.335,0,0,0-1.007.424,1.547,1.547,0,0,0-.4,1.1,1.522,1.522,0,0,0,.406,1.1,1.306,1.306,0,0,0,1,.433,1.34,1.34,0,0,0,1.016-.424,1.537,1.537,0,0,0,.406-1.122,1.487,1.487,0,0,0-.406-1.1A1.352,1.352,0,0,0,281.4,22.4Z" transform="translate(-271.313 -19.327)"/>
      <path id="Path_35" data-name="Path 35" class="cls-2" d="M358.9,21.241h1.308v.53a3.137,3.137,0,0,1,.8-.521,1.944,1.944,0,0,1,.733-.15,1.76,1.76,0,0,1,1.308.539,1.864,1.864,0,0,1,.451,1.352v3.437h-1.29V24.157a6.056,6.056,0,0,0-.079-1.237.779.779,0,0,0-.8-.627.969.969,0,0,0-.68.265,1.43,1.43,0,0,0-.389.733,6.311,6.311,0,0,0-.053,1.051v2.085H358.9Z" transform="translate(-344.427 -19.236)"/>
      <path id="Path_36" data-name="Path 36" class="cls-2" d="M429.8,21.241h1.308v.53a3.137,3.137,0,0,1,.8-.521,1.945,1.945,0,0,1,.733-.15,1.76,1.76,0,0,1,1.308.539,1.864,1.864,0,0,1,.451,1.352v3.437h-1.29V24.157a6.051,6.051,0,0,0-.08-1.237.779.779,0,0,0-.8-.627.97.97,0,0,0-.68.265,1.43,1.43,0,0,0-.389.733,6.308,6.308,0,0,0-.053,1.051v2.085H429.8Z" transform="translate(-409.062 -19.236)"/>
      <path id="Path_37" data-name="Path 37" class="cls-2" d="M501.973,0h1.308V7.2h-1.308V6.653a2.635,2.635,0,0,1-.769.521,2.14,2.14,0,0,1-.831.159,2.3,2.3,0,0,1-1.741-.778,2.74,2.74,0,0,1-.733-1.944,2.806,2.806,0,0,1,.707-1.97,2.271,2.271,0,0,1,1.723-.769,2.243,2.243,0,0,1,.875.177,2.28,2.28,0,0,1,.76.53V0ZM500.6,3.075A1.334,1.334,0,0,0,499.6,3.5a1.548,1.548,0,0,0-.4,1.1,1.523,1.523,0,0,0,.406,1.1,1.306,1.306,0,0,0,1,.433,1.34,1.34,0,0,0,1.016-.424,1.537,1.537,0,0,0,.406-1.122,1.487,1.487,0,0,0-.406-1.1A1.352,1.352,0,0,0,500.6,3.075Z" transform="translate(-471.145)"/>
      <path id="Path_38" data-name="Path 38" class="cls-2" d="M579.473,21.333h1.308v5.2h-1.308V25.98a2.633,2.633,0,0,1-.769.521,2.14,2.14,0,0,1-.831.159,2.3,2.3,0,0,1-1.741-.778,2.74,2.74,0,0,1-.733-1.944,2.806,2.806,0,0,1,.707-1.97,2.271,2.271,0,0,1,1.723-.769,2.242,2.242,0,0,1,.875.177,2.279,2.279,0,0,1,.76.53v-.574ZM578.1,22.4a1.334,1.334,0,0,0-1.007.424,1.547,1.547,0,0,0-.4,1.1,1.523,1.523,0,0,0,.406,1.1,1.306,1.306,0,0,0,1,.433,1.34,1.34,0,0,0,1.016-.424,1.537,1.537,0,0,0,.406-1.122,1.488,1.488,0,0,0-.406-1.1A1.365,1.365,0,0,0,578.1,22.4Z" transform="translate(-541.797 -19.327)"/>
      <path id="Path_39" data-name="Path 39" class="cls-2" d="M650.471,1h1.308V2.917h.778V4.04h-.778V8.113h-1.308V4.04H649.8V2.917h.671Z" transform="translate(-609.623 -0.912)"/>
      <path id="Path_40" data-name="Path 40" class="cls-2" d="M694.573,21.333h1.308v5.2h-1.308V25.98a2.633,2.633,0,0,1-.769.521,2.14,2.14,0,0,1-.831.159,2.3,2.3,0,0,1-1.741-.778,2.74,2.74,0,0,1-.733-1.944,2.806,2.806,0,0,1,.707-1.97,2.271,2.271,0,0,1,1.723-.769,2.243,2.243,0,0,1,.875.177,2.278,2.278,0,0,1,.76.53v-.574ZM693.2,22.4a1.334,1.334,0,0,0-1.007.424,1.547,1.547,0,0,0-.4,1.1,1.522,1.522,0,0,0,.406,1.1,1.306,1.306,0,0,0,1,.433,1.341,1.341,0,0,0,1.016-.424,1.537,1.537,0,0,0,.406-1.122,1.488,1.488,0,0,0-.406-1.1A1.366,1.366,0,0,0,693.2,22.4Z" transform="translate(-646.727 -19.327)"/>
    </g>
  </g>
</svg>
